<svg version="1.1" id="Layer_1" xmlns="http://www.w3.org/2000/svg" xmlns:xlink="http://www.w3.org/1999/xlink" x="0px" y="0px"
	 viewBox="0 0 2681 771" style="enable-background:new 0 0 2681 771;" xml:space="preserve">
<g>
	<path d="M1184.352,77.933c66.78,40.097,101.695,105.743,130.557,175.986c0.952,2.018,1.323,4.616,3.541,5.692
		c6.38-39.752-2.797-76.978,17.532-89.116c3.891-0.414,12.409,11.289,14.391,26.136c2.609,21.097-0.364,55.91,4.264,64.16
		c18.274-32.826,51.603-168.126,194.336-207.861c119.324-33.106,196.708,25.806,218.35,89.411
		c20.849,59.648-26.067,111.008-77.561,88.878c-39.398-14.167-35.284-79.235,10.175-69.109c4.235,1.466,9.232,3.084,11.412,7.367
		c-6.605,0.371-13.201-2.208-19.75-0.523c-25.659,5.818-17.815,44.121,13.649,50.55c32.199,5.42,73.552-26.868,42.078-83.919
		c-52.806-93.749-182.406-73.928-251.424-34.036c-82.59,47.418-123.821,148.089-124.903,161.271
		c23.511-14.429,64.655-80.944,185.256-64.798c5.197,1.076,10.86,2.008,14.781,5.911c-7.186-1.77-14.581-0.819-21.872-0.999
		c-180.067-2.185-193.933,159.756-211.802,202.417c-44.353-213.97-171.247-197.606-229.2-206.281
		c133.458-24.102,176.774,59,193.661,61.923c-2.451-16.43-60.659-174.82-224.765-191.262c-42.167-1.313-65.898-1.674-92.923,11.203
		c-25.536,12.038-54.394,39.012-65.35,70.699c-22.495,68.527,57.622,88.521,77.285,43.145c5.311-12.762-5.578-24.731-13.42-25.232
		c-7.843-0.485-15.781-0.543-23.471,1.266c3.227-2.741,6.329-5.901,10.46-7.234c54.573-17.715,55.531,69.11-6.739,71.984
		c-50.48,0.394-72.77-44.953-58.24-89.582c8.785-28.801,28.42-53.376,52.177-71.432
		C1021.148,25.709,1121.927,39.779,1184.352,77.933z"/>
	<path d="M1353.552,100.091c3.517,0.479,14.992,11.604,17.227,24.423c4.942,26.958-23.823,43.491-45.438,35.169
		C1287.478,145.045,1307.632,81.838,1353.552,100.091z"/>
	<path d="M1300.842,359.244c-15.152-1.114-30.286-2.694-45.448-3.56c8.761,5.913,35.279,17.976,41.565,26.812
		c0.158,5.877-29.964,4.779-62.304,17.465c-90.287,34.099-75.973,124.546-154.38,163.527
		c-121.386,59.854-131.996-129.792-39.842-77.98c9.513,10.867,19.945,17.806-0.562,37.52c-0.657-4.511,0.01-9.185-1.485-13.553
		c-3.971-13.586-21.809-19.536-33.465-8.005c-10.446,12.272-2.768,42.951,23.033,48.713c21.766,3.859,44.255-17.079,56.098-38.138
		c21.416-37.948,21.658-74.157,38.681-105.972c9.601-17.995,23.497-30.41,26.384-37.71c-17.892,2.586-67.068,37.195-71.946,38.614
		c-0.661-2.503-0.011-74.14,54.319-106.41C1195.247,262.635,1282.625,288.673,1300.842,359.244z"/>
	<path d="M1591.642,376.823c2.36,9.984,2.075,20.264,3.208,30.4c-0.952-0.549-59.958-38.989-71.527-38.671
		c6.128,10.951,25.402,26.788,36.111,61.476c11.697,33.475,18.8,97.533,66.159,117.594c33.523,13.945,49.956-20.25,46.39-37.976
		c-2.921-15.26-28.99-22.88-37.738,0.571c-1.609,4.216-0.885,8.795-1.237,13.201c-4.635-5.216-10.222-10.394-11.793-17.446
		c-3.371-13.137,30.376-38.658,55.185-25.346c37.993,22.395,12.261,113.846-62.276,91.771
		c-75.573-21.421-85.958-92.719-121.467-133.564c-44.484-51.954-114.841-50.28-120.068-54.166
		c11.184-9.175,23.5-16.828,36.149-23.785c2.17-1.152,4.283-2.513,5.692-4.588c-10.664-1.094-35.38,4.756-41.374,4.083
		c-0.247-1.875-0.343-3.788,0.152-5.625C1403.421,253.32,1572.581,259.906,1591.642,376.823z"/>
	<path d="M962.861,301.365c33.783,1.145,56.457,23.387,64.836,47.371c8.02,22.511-1.306,41.591-8.557,54.576
		c-6.957,12.1-30.127,25.47-35.178,24.623c-20.487-9.849-28.936-29.338-25.603-39.623c7.161-20.821,20.025-14.999,34.026-15.448
		c9.219,0.121,2.236-20.226-4.273-27.259c-12.489-15.272-38.607-17.24-56.803-10.108c-46.644,19.039-68.35,85.627-76.076,92.904
		c-1.323-0.095-3.255,0.257-3.674-1.428c-7.802-15.932-4.271-13.109-7.624-22.205c-5.61,5.175-47.705,111.244-155.208,63.208
		c-2.494-1.056-4.921-2.817-4.93-5.796c21.435-4.276,84.544,10.725,127.711-52.291c4.816-7.015,9.775-14.039,13.049-21.939
		c-6.725-7.452-30.305-8.181-27.212-37.91c0.946-8.138,26.975,0.628,58.611-9.718C902.697,325.909,927.411,299.614,962.861,301.365z
		"/>
	<path d="M1719.524,301.099c37.079-0.642,86.113,41.027,133.193,44.496c9.594,0.628,19.207,0.514,28.82,0.533
		c-0.224,13.32,2.339,21.114-9.289,32.77c-3.293,3.341-8.233,3.664-12.135,5.939c-9.42,5.021,31.445,70.73,91.048,74.182
		c16.761,1.494,33.589,2.132,50.397,2.608c-0.99,1.323-2.294,2.332-3.836,2.874c-12.466,4.921-27.22,17.023-66.987,14.42
		c-63.927-5.355-79.971-58.187-93.551-71.632c-3.663,9.287-1.783,11.869-10.365,21.615c-0.552-0.067-1.656-0.219-2.208-0.295
		c-19.541-37.345-48.095-101.121-100.233-97.282c-21.186,1.169-37.28,13.065-40.223,34.807c-0.648,7.54,4.52,4.327,14.496,4.873
		c6.282,0.247,13.344,0.809,17.998,5.597c17.603,18.102-6.472,66.026-40.289,41.165
		C1619.792,370.266,1664.54,300.585,1719.524,301.099z"/>
	<path d="M709.333,370.58c4.326,1.318,14.336,11.206,24.889,7.681c6.091-2.046,11.031-6.786,17.541-7.776
		c1.017,13.866-20.904,40.786-35.226,39.29c-1.704-9.746-1.961-19.702-4.169-29.363C711.637,377.042,710.057,373.939,709.333,370.58
		z"/>
	<path d="M1929.955,370.808c8.367-0.948,13.241,9.539,23.566,7.748c6.482-1.723,12.135-5.577,18.493-7.69
		c-1.418,4.055-3.893,7.738-4.397,12.097c-1.932,8.775-0.247,17.96-2.874,26.612
		C1952.469,411.791,1926.955,389.163,1929.955,370.808z"/>
	<path d="M1357.264,397.744c51.879,11.002,104.919,53.166,103.412,105.43c0.443,40.007-19.59,57.394-45.667,84.1
		c-0.355-11.483,2.362-28.207-11.859-53.424c-0.476-0.048-1.428-0.124-1.904-0.162c-9.372,106.18-36.334,99.521-63.722,170.066
		c-1.123,0-2.227,0.01-3.322,0.029c-1.542-3.674-0.895-7.89-2.779-11.46c-26.307-58.171-49.575-55.207-59.23-159.901
		c-12.433,10.169-14.154,40.112-16.047,51.14c-12.938-5.316-62.206-55.437-35.978-116.232
		c17.457-38.252,70.131-67.075,94.912-69.262c2.18,1.685,5.073,3.198,5.292,6.31c6.914,51.854,0.768,137.022,20.245,138.162
		C1357.56,518.379,1340.312,422.814,1357.264,397.744z"/>
	<path d="M1247.294,417.293c-7.731,11.073-31.203,36.326-66.33,111.626c-55.199,117.253-72.841,142.918-127.673,175.091
		c-56.355,32.987-151.47,39.517-191.643-34.912c-46.707-92.736,25.986-150.112,76.333-119.183
		c29.985,18.894,17.483,83.482-15.638,67.996c-4.14-1.923-9.147-3.217-11.393-7.605c5.394-0.221,23.028,4.745,27.392-10.679
		c3.597-11.633-1.552-34.474-21.368-37.948c-25.176-2.398-68.635,26.47-45.191,82.996c41.706,95.416,157.117,61.866,196.107,22.081
		c-1.242,0.18-48.168,16.521-67.101,12.278c0.01-4.978,5.834-5.635,9.489-6.805c47.208-15.533,90.427-40.804,149.088-142.007
		C1195.292,467.858,1198.28,449.465,1247.294,417.293z"/>
	<path d="M1431.084,422.195c66.17,24.282,90.047,196.319,216.323,244.629c19.944,7.828,21.996,6.629,25.003,11.402
		c-11.301,6.498-59.5-9.244-67.491-9.803c5.922,6.866,35.35,21.716,43.592,25.613c17.76,9.013,37.948,12.135,57.707,12.002
		c78.963,3.89,106.762-73.591,101.204-101.156c-2.509-18.475-20.271-35.515-32.875-40.622
		c-40.571-13.809-55.341,40.564-26.06,47.704c4.321,1.218,9.385-0.143,13.011,3.112c-11.608,2.573-23.653,11.541-35.74-2.97
		c-9.278-12.195-13.324-40.214,3.169-56.708c21.726-22.49,64.082-17.813,84.957,13.373c26.464,37.07,10.705,118.638-54.937,148.993
		c-68.881,28.865-159.597-8.544-202.093-68.139c-58.239-81.868-38.732-89.896-120.849-217.998
		C1434.121,428.62,1431.951,425.698,1431.084,422.195z"/>
	<path d="M336.508,465.682c23.728,20.818,24.225,25.247,55.042,18.293c39.499-10.327,80.179-17.265,121.115-16.761
		c50.596-0.515,93.483,12.061,117.784,60.01c42.053,86.15-30.499,152.552-114.281,128.349
		c-16.771-5.282-32.237-13.906-47.085-23.186c-89.799-54.202-54.507-16.255-91.495-1.323c-30.626,0.76-39.07-56.244,31.276-47.704
		c29.436,5.715,36.868,13.859,50.978,18.788c2.639-10.725-6.623-49.302,40.327-61.2c14.767-3.656,44.807,7.503,52.148,33.95
		c1.199,4.702,3.293,9.632,1.78,14.515c-7.067,18.835-23.029,19.621-29.629,13.277c-11.26-12.322-2.03-18.541-5.33-31.742
		c-5.273-1.199-10.622-2.275-16.019-2.684c-15.073-0.034-26.6,23.653-7.89,47.542c36.817,46.64,115.759,16.199,115.452-36.482
		c0.156-28.439-0.206-44.077-24.509-62.085c-15.123-10.17-38.016-16.183-50.578-16.799
		c-164.527-10.628-212.694,76.127-319.62,130.405c-56.673,29.318-101.252,29.486-117.298,21.653
		c-54.879-26.826-49.036-102.139,7.548-100.328c42.199,1.784,38.105,38.586,27.202,46.657c-6.006,4.483-13.201,9.28-21.082,7.586
		c-24.515-8.989-13.959-19.937-20.368-26.898c-6.66,4.888-13.114,22.406-3.036,33.246c16.557,20.141,49.502,22.269,73.983,16.504
		c38.772-10.674,148.854-80.08,151.772-91.724c-0.181-0.276-0.552-0.838-0.733-1.114c-10.99-3.515-59.954,1.138-65.416-41.745
		c6.567,2.218,12.497,6.034,19.226,7.833c22.044,6.101,16.448,5.123,53.595,5.387c33.315-1.469,11.348-11.561,14.401-33.322
		C336.375,471.65,336.537,468.661,336.508,465.682z"/>
	<path d="M2311.613,486.983c12.9,0.024,23.227-12.616,34.226-21.215c-3.416,37.909-6.785,37.041-0.352,39.652
		c6.415,2.589,13.439,2.989,20.273,3.398c37.399,0.851,51.573-8.93,66.892-11.441c-2.075,12.687-10.965,23.795-22.491,29.315
		c-25.67,11.811-35.028,4.546-46.723,9.746c3.734,9.609,124.093,86.709,157.283,93.589c35.969,9.044,74.475-8.88,75.515-27.821
		c0.79-7.376,0.124-16.523-6.568-21.101c-3.388,3.702-2.265,9.27-5.13,13.268c-6.463,9.841-20.645,14.924-31.304,8.842
		c-12.84-7.462-16.057-26.25-7.49-38.091c11.722-18.063,66.275-24.313,74.278,21.767c4.775,39.598-27.019,68.189-56.555,70.223
		c-87.702,6.726-192.871-96.46-269.404-133.574c-75.876-34.841-216.229-42.52-223.804,34.103
		c-6.533,53.947,29.777,85.335,79.589,80.455c14.267-1.485,26.288-10.908,34.93-21.844c18.632-22.583,13.667-57.451-21.053-45.772
		c-6.961,2.738,2.244,18.287-2.303,27.116c-5.511,6.653-15.39,11.117-23.757,7.281c-23.823-11.36-7.193-63.665,38.747-64.408
		c13.62,0.257,26.307,8.043,34.141,18.96c12.343,17.082,9.088,29.826,11.107,42.754c14.754-6.162,35.806-22.489,75.62-19.264
		c57.859,9.585,14.944,75.019-10.203,35.083c-2.989-4.378-4.607-9.632-8.205-13.573c-5.581-6.258-34.431,8.709-41.65,12.821
		c-11.918,6.396-114.433,84.82-177.394,14.838c-31.826-33.704-25.404-91.458,5.073-127.111
		C2127.741,430.087,2288.289,487.185,2311.613,486.983z"/>
	<path d="M700.558,479.826c7.153-1.96,21.557,7.152,25.175,13.02c6.451,11.804-2.591,36.51-21.358,16.599
		c-2.675-2.551-6.415-5.492-10.308-3.883c-39.088,21.704-32.782,100.945-17.542,117.603c4.264-0.048,7.7-2.932,11.326-4.787
		c22.632-3.251,22.83,44.252-4.169,36.32c-13.959-4.59-17.554-9.53-25.66-21.834C641.989,607.863,631.274,498.1,700.558,479.826z"/>
	<path d="M1975.546,481.073c57.566-2.395,74.495,106.227,46.228,153.038c-27.139,38.423-50.828,15.027-45.791-0.371
		c1.742-5.911,5.225-12.126,11.117-14.648c6.434-0.923,12.354,2.77,18.579,3.845c10.802-14.654,12.909-61.974,7.157-78.151
		c-6.021-18.486-21.075-49.24-34.95-35.54c-3.407,3.788-8.081,6.034-12.221,8.899
		C1954.95,525.734,1942.288,482.435,1975.546,481.073z"/>
</g>
</svg>
